<?xml version="1.0" encoding="UTF-8" standalone="no"?>
<!-- Created with Inkscape (http://www.inkscape.org/) -->

<svg
   width="125.30708mm"
   height="51.490566mm"
   viewBox="0 0 125.30708 51.490566"
   version="1.1"
   id="svg5"
   xml:space="preserve"
   inkscape:version="1.2.2 (b0a8486541, 2022-12-01, custom)"
   sodipodi:docname="fsdfs.svgz"
   inkscape:export-filename="../60a794da/Logo.svg"
   inkscape:export-xdpi="96"
   inkscape:export-ydpi="96"
   xmlns:inkscape="http://www.inkscape.org/namespaces/inkscape"
   xmlns:sodipodi="http://sodipodi.sourceforge.net/DTD/sodipodi-0.dtd"
   xmlns="http://www.w3.org/2000/svg"
   xmlns:svg="http://www.w3.org/2000/svg"><sodipodi:namedview
     id="namedview7"
     pagecolor="#ffffff"
     bordercolor="#000000"
     borderopacity="0.25"
     inkscape:showpageshadow="2"
     inkscape:pageopacity="0.0"
     inkscape:pagecheckerboard="0"
     inkscape:deskcolor="#d1d1d1"
     inkscape:document-units="mm"
     showgrid="false"
     showguides="true"
     inkscape:zoom="0.50373354"
     inkscape:cx="916.15897"
     inkscape:cy="811.9372"
     inkscape:window-width="1920"
     inkscape:window-height="1001"
     inkscape:window-x="0"
     inkscape:window-y="0"
     inkscape:window-maximized="1"
     inkscape:current-layer="layer4"
     inkscape:lockguides="false" /><defs
     id="defs2" /><g
     inkscape:groupmode="layer"
     id="layer8"
     inkscape:label="Oficina"
     style="display:inline"
     transform="translate(-95.110654,-96.139049)"><g
       id="g14261"
       transform="translate(-2.095674,3.9504199)"><g
         id="g15046"><g
           id="g21963-6-9"
           style="fill:#00ffff;fill-opacity:1;stroke:none"
           transform="translate(-41.153228,30.319621)"><path
             style="fill:#00ffff;fill-opacity:1;stroke:none;stroke-width:0.0499123;stroke-linecap:round;stroke-linejoin:bevel;stroke-miterlimit:7.6;stroke-dasharray:none;stroke-dashoffset:0;stroke-opacity:1;paint-order:normal"
             d="m 153.73564,113.00919 c -0.0801,-0.1937 -0.29599,-1.0149 -0.47972,-1.8249 -0.76714,-3.38205 -1.30731,-5.02316 -2.36053,-7.17154 -1.0725,-2.18772 -1.67471,-3.74288 -2.2612,-5.839339 -0.48827,-1.74539 -1.78926,-5.295266 -2.47118,-6.742858 -0.37246,-0.790675 -0.66924,-0.986258 -0.53438,-0.352174 0.0449,0.211304 0.0602,0.384189 0.0338,0.384189 -0.0263,0 -0.39771,-0.551242 -0.82526,-1.22498 -0.91634,-1.444001 -1.63363,-2.310535 -3.06727,-3.705449 -1.17969,-1.147819 -1.50001,-1.551282 -1.50001,-1.889328 0,-0.127351 0.25292,-0.630309 0.56206,-1.117686 l 0.56207,-0.886138 0.79586,0.377802 c 0.69586,0.330326 0.94183,0.377804 1.9573,0.377804 h 1.16143 v 1.146879 c 0,1.012523 0.0399,1.202218 0.34086,1.619225 0.18747,0.259786 0.40919,0.686808 0.4927,0.948932 0.25135,0.788936 2.08509,1.791677 3.27648,1.791677 0.37073,0 0.55506,-0.06466 0.617,-0.216431 0.0498,-0.121965 0.017,-0.238792 -0.0751,-0.267665 -0.0986,-0.03092 -0.0263,-0.152708 0.1825,-0.307129 1.04798,-0.775199 1.11797,-2.272541 0.27098,-5.797194 -0.37524,-1.561527 -1.18853,-3.264469 -1.83889,-3.850404 -0.56917,-0.512788 -0.67864,-0.285194 -0.22794,0.473913 0.21021,0.354059 0.35478,0.669527 0.32127,0.701038 -0.0335,0.03151 -0.33044,-0.276161 -0.65985,-0.683716 -0.76496,-0.946422 -2.08323,-1.950721 -3.36947,-2.566952 -0.89617,-0.42935 -1.12238,-0.483865 -2.00786,-0.483865 -0.54885,0 -0.99828,-0.04322 -0.99873,-0.09605 -5.4e-4,-0.05283 -8.1e-4,-0.154307 -8.1e-4,-0.225514 0,-0.07121 0.4513,-0.575456 1.00291,-1.120552 1.23888,-1.224287 1.756,-2.079622 1.25729,-2.079622 -0.10509,0 -0.38377,0.216106 -0.61929,0.480236 l -0.42823,0.480237 0.0913,-0.441699 c 0.0502,-0.242934 0.2725,-0.848032 0.49392,-1.344663 0.58565,-1.313556 0.59322,-1.351184 0.27177,-1.351184 -0.51673,0 -1.31129,1.652038 -1.4751,3.06701 -0.0768,0.663503 -0.14245,0.769043 -0.98532,1.58448 l -0.90302,0.873629 0.47149,0.374986 c 0.31266,0.248666 0.62232,0.374987 0.91922,0.374987 0.51911,0 0.53348,0.03569 0.19835,0.492482 -0.13716,0.186959 -0.45109,0.872991 -0.69761,1.524512 -0.24652,0.651521 -0.52602,1.184584 -0.62112,1.184584 -0.27516,0 -1.7177,-1.541324 -1.99574,-2.132405 l -0.25302,-0.537903 1.01493,-3.873024 c 0.98961,-3.776383 1.03123,-3.895654 1.66792,-4.77986 1.28191,-1.780274 3.93299,-3.899868 6.10219,-4.878842 4.53756,-2.047824 8.98161,-2.139982 13.8249,-0.286692 2.33296,0.892708 5.34296,3.172802 6.7937,5.146276 0.68102,0.92639 0.69545,0.966915 1.64494,4.619465 0.52684,2.026681 0.95789,3.872269 0.95789,4.101305 0,0.500839 -0.90399,1.720282 -1.73298,2.33771 l -0.5491,0.408972 -0.43737,-1.183054 c -0.24056,-0.650679 -0.55439,-1.36274 -0.69741,-1.582358 -0.33588,-0.515755 -0.32883,-0.561168 0.0872,-0.561168 0.40025,0 1.02204,-0.276094 1.27996,-0.568343 0.15253,-0.17283 0.0531,-0.317964 -0.70863,-1.034276 -0.85177,-0.800985 -0.89143,-0.866638 -1.02482,-1.696333 -0.23875,-1.48501 -0.97511,-2.97614 -1.4697,-2.97614 -0.26092,0 -0.26049,0.002 0.26686,1.264753 0.25368,0.607428 0.49951,1.2773 0.54627,1.488604 l 0.085,0.384189 -0.44414,-0.480242 c -0.46527,-0.503091 -0.7846,-0.617772 -0.7846,-0.281777 0,0.338776 0.36189,0.868405 0.95819,1.402335 0.31466,0.281738 0.81326,0.795079 1.108,1.140756 0.64126,0.752069 0.55175,0.859819 -0.63159,0.760357 -0.76153,-0.06401 -0.90165,-0.03103 -1.91123,0.449872 -1.39882,0.666304 -2.83124,1.74696 -3.51231,2.649782 -0.63542,0.842312 -0.82088,0.833068 -0.31638,-0.01578 0.40506,-0.681526 0.43392,-0.822949 0.16795,-0.822949 -0.28389,0 -0.86364,0.785319 -1.45332,1.968658 -0.3816,0.765764 -0.64262,1.590659 -0.94023,2.971382 -0.62647,2.906502 -0.53486,4.185706 0.35224,4.918156 0.24595,0.203074 0.37755,0.391056 0.29244,0.417736 -0.0851,0.02668 -0.115,0.1459 -0.0664,0.264937 0.13388,0.328083 1.11302,0.275823 1.98512,-0.105949 1.12513,-0.492546 1.73445,-1.007395 1.9737,-1.667691 0.11519,-0.317909 0.33516,-0.728323 0.48883,-0.912033 0.23401,-0.279764 0.27939,-0.518407 0.27939,-1.469311 v -1.135287 l 1.1235,-2.56e-4 c 0.94785,-5.13e-4 1.2507,-0.05675 1.93715,-0.360862 l 0.81366,-0.360461 0.41956,0.649003 c 0.23075,0.35695 0.50171,0.769969 0.60212,0.917815 0.10431,0.153586 0.1462,0.405102 0.0977,0.586757 -0.0467,0.17487 -0.83698,1.07069 -1.75624,1.990713 -1.28699,1.288051 -1.90196,2.030938 -2.67396,3.230113 -0.55141,0.856542 -1.02864,1.532833 -1.0605,1.502872 -0.0319,-0.02996 0.0156,-0.206238 0.10547,-0.391725 0.16829,-0.347333 0.0737,-0.603789 -0.14449,-0.391661 -0.37136,0.361085 -2.07171,4.820706 -2.7555,7.227029 -0.61009,2.146955 -1.25003,3.805395 -2.23419,5.790065 -0.94663,1.90895 -1.60176,3.78731 -2.15681,6.18384 -0.80788,3.48824 -0.76228,3.38826 -1.54717,3.39171 -0.36133,0.002 -0.4736,-0.0649 -0.59162,-0.35021 z m 0.90394,-5.69881 c 0.0342,-0.088 0.0782,-4.92884 0.0979,-10.757331 l 0.0358,-10.597253 -0.34046,-3e-6 -0.34045,-2e-6 0.0389,10.597253 c 0.0214,5.828486 0.0654,10.669286 0.0979,10.757336 0.0324,0.088 0.12405,0.16008 0.20365,0.16008 0.0796,0 0.17267,-0.072 0.20681,-0.16008 z m -3.74753,-7.511813 c 0,-0.06389 -0.30725,-0.901374 -0.68278,-1.861077 -0.59808,-1.528448 -1.83185,-5.382203 -2.1032,-6.569501 -0.15264,-0.667878 -0.3462,-0.618635 -0.3462,0.08807 0,1.626478 1.84988,7.391313 2.62184,8.170528 0.29696,0.29976 0.51034,0.371663 0.51034,0.171976 z m 8.04265,-0.97237 c 0.91523,-1.897903 2.22586,-6.510149 2.14176,-7.537039 -0.0419,-0.511048 -0.0494,-0.518945 -0.20212,-0.210779 -0.0872,0.176087 -0.46913,1.373387 -0.84862,2.660667 -0.3795,1.28728 -1.00096,3.144505 -1.38103,4.127167 -0.38007,0.982659 -0.65048,1.848373 -0.6009,1.923805 0.15201,0.231302 0.49191,-0.1364 0.89091,-0.963821 z m -6.54794,-2.557976 c 0.295,-0.295283 0.31076,-0.387611 0.2314,-1.355325 -0.0707,-0.862833 -0.0291,-1.241213 0.2461,-2.237368 0.44104,-1.596273 0.63481,-3.469393 0.47654,-4.606632 -0.0686,-0.493043 -0.12676,-0.935547 -0.12921,-0.983343 -0.011,-0.214423 -0.46618,-0.489383 -0.81016,-0.489383 -0.48842,0 -0.7564,0.290752 -1.1595,1.258008 -0.18016,0.432315 -0.45961,0.960404 -0.62098,1.173527 -0.5067,0.669173 -0.95453,1.873924 -0.95453,2.567872 0,0.66934 0.64476,3.289765 1.01385,4.120461 0.38456,0.8655 1.14702,1.112216 1.70649,0.552183 z m 5.18573,0.185013 c 0.38283,-0.192669 0.60639,-0.674201 1.07305,-2.311263 0.30281,-1.06225 0.41705,-1.747111 0.4172,-2.501077 l 2.7e-4,-1.038277 -1.0554,-1.970446 c -1.07909,-2.014655 -1.19936,-2.142288 -1.86967,-1.984081 -0.86986,0.205305 -0.97323,3.2483 -0.20165,5.93646 0.17855,0.622066 0.26691,1.340006 0.26691,2.168818 0,1.095787 0.0342,1.273177 0.2961,1.535328 0.32015,0.320465 0.65993,0.372556 1.07326,0.164538 z m -12.2658,-7.007659 c -0.002,-0.273256 -0.89907,-1.841028 -1.71065,-2.990773 -0.58249,-0.825178 -1.69083,-1.907641 -1.95326,-1.907641 -0.34953,0 -0.23616,0.318505 0.37467,1.052676 0.36803,0.44233 1.08194,1.409337 1.58648,2.148901 1.22482,1.795373 1.70772,2.276583 1.70276,1.696837 z m 19.84761,-1.612763 c 0.69129,-0.973334 1.50253,-2.059803 1.80274,-2.414374 0.52738,-0.622873 0.59022,-0.871277 0.22043,-0.871277 -0.59833,0 -3.22595,3.4564 -3.68414,4.846154 -0.0815,0.24709 -0.0546,0.291924 0.1526,0.254553 0.14503,-0.02616 0.78345,-0.79438 1.50837,-1.815056 z m -11.13007,-2.325178 c 0.16202,-0.246521 0.3448,-0.448221 0.4062,-0.448221 0.0614,0 0.23817,0.2017 0.39284,0.448221 0.28683,0.45716 0.69896,0.606025 0.69896,0.252474 0,-0.263728 -0.74506,-1.637622 -0.99303,-1.831149 -0.16047,-0.125238 -0.23642,-0.09942 -0.39926,0.135724 -0.28428,0.410506 -0.78662,1.50594 -0.78662,1.715357 0,0.330689 0.38604,0.176248 0.68091,-0.272406 z m -1.41639,-2.364419 c -0.11107,-0.787429 -1.17497,-3.735606 -1.70307,-4.719386 -0.54635,-1.017797 -1.44513,-2.104577 -2.64085,-3.193259 -0.94143,-0.857151 -1.45732,-1.135916 -1.45732,-0.787473 0,0.07754 0.46752,0.581791 1.03894,1.120552 1.70343,1.606093 2.13372,2.289243 3.51463,5.580094 0.95888,2.285107 1.12575,2.635039 1.25649,2.635039 0.0445,0 0.0405,-0.286006 -0.009,-0.635567 z m 4.67117,-1.561594 c 1.36767,-3.367578 1.97608,-4.356074 3.76473,-6.116618 0.9425,-0.927696 1.07825,-1.162891 0.67122,-1.162891 -0.31912,0 -1.44752,1.071001 -2.54265,2.4133 -0.86716,1.062884 -1.24168,1.66184 -1.69404,2.709225 -0.67886,1.571795 -1.27514,3.446905 -1.27514,4.009894 0,0.643148 0.20684,0.286933 1.07588,-1.85291 z m -4.75278,-1.429394 c 0,-0.749184 -0.9603,-2.710263 -1.69805,-3.467682 -0.75305,-0.773129 -1.03764,-0.495894 -0.4261,0.415091 0.17992,0.268015 0.61588,1.030446 0.9688,1.694292 0.35293,0.663846 0.70349,1.279028 0.77901,1.367071 0.17946,0.209191 0.37634,0.204602 0.37634,-0.0088 z m 4.75969,-1.099294 c 0.3722,-0.697477 0.86301,-1.544372 1.0907,-1.881987 0.45422,-0.673535 0.51755,-0.947887 0.21881,-0.947887 -0.5196,0 -2.0124,2.410173 -2.20111,3.553751 -0.14829,0.898652 0.15882,0.649313 0.8916,-0.723877 z m 2.28808,-6.902106 c 0.79128,-0.894131 2.09128,-2.622431 2.39872,-3.18899 0.23178,-0.427123 0.3007,-1.06288 0.11523,-1.06288 -0.059,0 -0.34499,0.388992 -0.63565,0.864426 -0.29066,0.475434 -0.99819,1.469524 -1.57228,2.209089 -1.28953,1.661212 -1.44736,1.920946 -1.16728,1.920946 0.11225,0 0.49982,-0.334166 0.86126,-0.742591 z"
             id="path20842-18-1-3"
             sodipodi:nodetypes="csssssssssscsscsssssscssssssscsssscssssscsssssscsssssssscssssssssscssssssssssssssssssccscssssssssssscccsscccsssssssssssssssssssssssssssscsccssssscccsssscsssssssssssssssssssssssssssssssssssssssssssssssss" /><path
             style="fill:#00ffff;fill-opacity:1;stroke:none;stroke-width:0.0124781;stroke-linecap:round;stroke-linejoin:bevel;stroke-miterlimit:7.6;stroke-dasharray:none;stroke-dashoffset:0;stroke-opacity:1;paint-order:normal"
             d="m 161.1064,97.097345 c 0.0297,-0.175887 0.45808,-1.374665 0.68644,-1.920947 0.30255,-0.723753 1.11507,-2.21628 1.94334,-3.569759 0.35027,-0.57238 0.79388,-1.224613 0.81768,-1.202233 0.0476,0.04473 -0.52057,1.936752 -0.73113,2.434841 -0.15762,0.372848 -0.60276,1.20983 -0.85543,1.608429 -0.20602,0.325011 -1.25385,1.850983 -1.47319,2.145438 -0.0691,0.09277 -0.13526,0.216857 -0.14701,0.275754 -0.0117,0.0589 -0.0756,0.163211 -0.14184,0.231812 l -0.12048,0.124728 z"
             id="path20844-6-0-9" /><path
             style="fill:#00ffff;fill-opacity:1;stroke:none;stroke-width:0.0124781;stroke-linecap:round;stroke-linejoin:bevel;stroke-miterlimit:7.6;stroke-dasharray:none;stroke-dashoffset:0;stroke-opacity:1;paint-order:normal"
             d="m 147.57107,96.980265 c -0.0598,-0.07648 -0.13137,-0.189472 -0.15906,-0.251101 -0.0277,-0.06163 -0.0847,-0.155277 -0.12676,-0.208103 -0.12412,-0.156035 -1.20545,-1.733974 -1.42075,-2.073257 -0.23583,-0.371629 -0.6625,-1.165666 -0.82535,-1.536002 -0.21433,-0.487411 -0.80628,-2.433283 -0.75491,-2.481586 0.0647,-0.06086 1.58417,2.410911 2.17956,3.545591 0.53765,1.024617 1.33139,3.03497 1.23433,3.126243 -0.0101,0.0095 -0.0673,-0.04531 -0.12706,-0.121785 z"
             id="path20846-9-2-0" /><path
             style="fill:#00ffff;fill-opacity:1;stroke:none;stroke-width:0.0124781;stroke-linecap:round;stroke-linejoin:bevel;stroke-miterlimit:7.6;stroke-dasharray:none;stroke-dashoffset:0;stroke-opacity:1;paint-order:normal"
             d="m 142.79725,82.22435 c -0.27963,-0.174176 -0.63766,-0.602878 -0.93443,-1.118885 -0.13263,-0.230603 -0.14045,-0.260701 -0.19731,-0.759527 l -0.0592,-0.519409 0.11134,-0.264978 c 0.16123,-0.38372 0.2731,-0.568244 0.37438,-0.617492 0.08,-0.03892 0.0989,-0.036 0.18521,0.02873 l 0.0961,0.07207 -0.0732,0.206845 -0.0732,0.206843 0.0695,0.367233 c 0.12538,0.662002 0.28774,1.151352 0.53899,1.624504 0.16527,0.311252 0.28524,0.650522 0.27106,0.766601 -0.0154,0.125914 -0.11525,0.128324 -0.30929,0.0075 z"
             id="path20848-0-47-8" /><path
             style="fill:#00ffff;fill-opacity:1;stroke:none;stroke-width:0.0124781;stroke-linecap:round;stroke-linejoin:bevel;stroke-miterlimit:7.6;stroke-dasharray:none;stroke-dashoffset:0;stroke-opacity:1;paint-order:normal"
             d="m 165.69652,82.240626 c -0.0418,-0.10255 0.0247,-0.298663 0.22645,-0.666998 0.32533,-0.594059 0.47384,-1.018187 0.61204,-1.747847 l 0.0695,-0.367233 -0.0732,-0.206843 -0.0732,-0.206845 0.0961,-0.07207 c 0.0867,-0.065 0.10494,-0.06777 0.18618,-0.02827 0.10103,0.04913 0.24914,0.295687 0.39052,0.650094 l 0.0934,0.234018 -0.0608,0.534361 -0.0607,0.534361 -0.19683,0.312738 c -0.22224,0.353121 -0.4379,0.625148 -0.63065,0.795474 -0.28368,0.250694 -0.53139,0.351285 -0.57882,0.235052 z"
             id="path20850-8-8-8" /></g><g
           aria-label="&lt;skrowll/&gt;"
           transform="matrix(0.93448355,0,0,1.0701098,-15.917908,-18.039799)"
           id="text11870-7-8-7-1"
           style="font-style:italic;font-size:17.5892px;font-family:'Courier New';-inkscape-font-specification:'Courier New Italic';fill:#00ffff;stroke-width:8.3099;stroke-linecap:round;stroke-linejoin:bevel;stroke-miterlimit:7.6"><path
             d="m 176.02248,132.10397 q -1.75678,-0.10164 -2.52995,-0.68863 -0.7725,-0.59557 -0.74081,-1.80736 l 1.43415,-0.18385 q -0.0315,0.75562 0.41447,1.1171 0.45519,0.35341 1.73207,0.42729 1.3026,0.0754 1.99823,-0.35778 0.69562,-0.43316 0.75479,-1.213 0.0319,-0.41991 -0.30662,-0.72354 -0.3299,-0.30312 -1.12711,-0.57304 l -0.97393,-0.32318 q -1.10779,-0.37395 -1.5517,-0.64925 -0.43469,-0.28337 -0.66447,-0.65817 -0.22056,-0.38287 -0.1809,-0.90563 0.0468,-0.61701 0.37642,-1.21767 0.32962,-0.60065 0.8941,-1.00697 0.57305,-0.40581 1.36122,-0.58401 0.78883,-0.18675 1.72293,-0.1327 1.50826,0.0873 2.25311,0.70704 0.75342,0.62028 0.6715,1.70006 l -1.43558,0.0891 0.003,-0.0428 q 0.0455,-0.59988 -0.37735,-0.9256 -0.42222,-0.33429 -1.42487,-0.3923 -1.18262,-0.0684 -1.8137,0.30822 -0.6311,0.37664 -0.68636,1.10506 -0.0299,0.3942 0.25053,0.66864 0.28964,0.26638 1.01234,0.49755 1.85619,0.60661 2.33633,0.85818 0.48013,0.25157 0.75797,0.5603 0.27848,0.30015 0.3757,0.60703 0.10579,0.30738 0.0772,0.68445 -0.067,0.88267 -0.66733,1.64842 -0.59971,0.75717 -1.62565,1.11958 -1.02595,0.36239 -2.31997,0.28752 z"
             id="path7789"
             style="fill:#00ffff" /><path
             d="m 187.79178,131.98709 -2.3103,-4.28565 -1.31712,1.20098 -0.64964,3.08467 h -1.54593 l 2.47348,-12.7453 h 1.54593 l -1.54593,7.96152 4.95555,-4.50895 h 1.81217 l -4.5433,3.99364 2.93726,5.29909 z"
             id="path7791"
             sodipodi:nodetypes="ccccccccccccc"
             style="fill:#00ffff" /><path
             d="m 199.93614,123.89479 c -2.26383,-0.40876 -3.36624,0.20281 -4.28477,1.0841 -0.70425,0.69281 -1.15944,1.57456 -1.36557,2.64526 l -0.85025,4.36294 h -1.54593 c 0.69172,-3.0904 1.17516,-6.53397 1.79513,-9.44909 l 1.50948,-0.007 c -0.0489,0.24424 -0.2219,1.02587 -0.31013,1.45128 1.00383,-1.09737 2.09434,-1.45227 3.52409,-1.46006 0.60692,0 1.18807,0.0487 1.74346,0.146 z"
             id="path7793"
             sodipodi:nodetypes="ccccccccccc"
             style="fill:#00ffff" /><path
             d="m 203.98333,132.15886 q -1.61463,0 -2.47348,-0.84167 -0.85885,-0.85026 -0.85885,-2.48207 0,-0.67849 0.1546,-1.50298 0.47236,-2.39619 1.7864,-3.59857 1.32262,-1.21098 3.31515,-1.21098 1.70911,0 2.54219,0.79014 0.83308,0.79014 0.83308,2.3876 0,1.15944 -0.36071,2.44771 -0.36072,1.27969 -1.05639,2.19006 -0.69566,0.91038 -1.68334,1.36557 -0.98767,0.45519 -2.19865,0.45519 z m 3.67587,-6.35547 q 0,-1.07356 -0.47237,-1.60605 -0.46377,-0.53248 -1.47721,-0.53248 -1.13368,0 -1.88088,0.66131 -0.73861,0.66131 -1.15086,1.97535 -0.40365,1.31404 -0.40365,2.48207 0,2.233 1.91523,2.233 0.86743,0 1.47721,-0.35212 0.60979,-0.36072 1.0478,-1.10792 0.4466,-0.7472 0.69566,-1.84652 0.24907,-1.10791 0.24907,-1.90664 z"
             id="path7795"
             style="fill:#00ffff" /><path
             d="m 218.08561,131.98709 h -1.75205 l -0.43801,-4.04517 -0.15459,-1.73487 -0.56684,1.19379 -2.33607,4.58625 h -1.74346 l 0.21925,-9.50172 1.56343,0.0454 -0.23675,5.3768 c -0.0115,0.32637 -0.0487,0.82736 -0.11165,1.50299 -0.0573,0.6699 -0.005,0.43132 -0.045,0.62599 0.84616,-1.83136 1.5758,-2.91233 2.46681,-4.81339 l 1.90286,0.008 c 0.14086,1.78134 0.32211,3.45935 0.50783,5.23744 0.0286,-0.14887 -1e-4,-0.0932 0.0629,-0.31081 0.063,-0.21758 0.29775,-0.96764 0.70425,-2.25019 l 1.96569,-5.37568 1.44921,0.0137 z"
             id="path7797"
             sodipodi:nodetypes="cccccccccccccccscccc"
             style="fill:#00ffff" /><path
             d="m 225.7053,130.73317 2.31888,0.0344 -0.24047,1.21956 -2.56796,-0.0429 q -1.06497,-0.18036 -1.37415,-0.60978 -0.41225,-0.56684 -0.41225,-1.37416 0,-0.23189 0.0343,-0.47237 l 1.75205,-9.02648 h -2.48207 l 0.23189,-1.21957 h 4.028 l -2.03547,10.52089 q -0.0172,0.0945 -0.0172,0.18035 0,0.25766 0.14601,0.50672 0.12882,0.21472 0.61837,0.28342 z m 0.0429,0.0344 z m -0.79014,-1.00485 z m 0.28342,2.22441 z"
             id="path7799"
             style="fill:#00ffff" /><path
             d="m 232.29664,130.73317 2.31889,0.0344 -0.24048,1.21956 -2.56795,-0.0429 q -1.06497,-0.18036 -1.37416,-0.60978 -0.41224,-0.56684 -0.41224,-1.37416 0,-0.23189 0.0343,-0.47237 l 1.75205,-9.02648 h -2.48207 l 0.23189,-1.21957 h 4.02799 l -2.03546,10.52089 q -0.0172,0.0945 -0.0172,0.18035 0,0.25766 0.146,0.50672 0.12883,0.21472 0.61837,0.28342 z m 0.043,0.0344 z m -0.79014,-1.00485 z m 0.28342,2.22441 z"
             id="path7801"
             style="fill:#00ffff" /></g><path
           style="fill:#000000;fill-opacity:1;stroke:#00ffff;stroke-width:1.51783;stroke-linecap:square;stroke-linejoin:miter;stroke-miterlimit:7.6;stroke-dasharray:none;stroke-dashoffset:0;stroke-opacity:1;paint-order:markers stroke fill"
           d="m 212.18333,106.49485 -5.94494,19.75887"
           id="path6912-85" /><path
           style="fill:none;fill-opacity:1;stroke:#00ffff;stroke-width:1.6;stroke-linecap:square;stroke-linejoin:miter;stroke-miterlimit:7.6;stroke-dasharray:none;stroke-dashoffset:0;stroke-opacity:1;paint-order:markers stroke fill"
           d="m 214.79431,109.95496 6.66759,7.92719 -6.28661,7.26661"
           id="path6914-6" /><path
           style="fill:none;fill-opacity:1;stroke:#00ffff;stroke-width:1.6;stroke-linecap:square;stroke-linejoin:miter;stroke-miterlimit:7.6;stroke-dasharray:none;stroke-dashoffset:0;stroke-opacity:1;paint-order:markers stroke fill"
           d="m 142.45301,110.11891 -6.66325,7.9273 6.28252,7.26672"
           id="path6914-7-1" /></g></g></g></svg>
