<?xml version="1.0" encoding="UTF-8" standalone="no"?>
<!-- Created with Inkscape (http://www.inkscape.org/) -->

<svg
   width="65.772667mm"
   height="51.814381mm"
   viewBox="0 0 65.772667 51.81438"
   version="1.1"
   id="svg5"
   xml:space="preserve"
   inkscape:version="1.2.2 (b0a8486541, 2022-12-01, custom)"
   sodipodi:docname="fsdfs.svgz"
   inkscape:export-filename="../60a794da/Logo.svg"
   inkscape:export-xdpi="96"
   inkscape:export-ydpi="96"
   xmlns:inkscape="http://www.inkscape.org/namespaces/inkscape"
   xmlns:sodipodi="http://sodipodi.sourceforge.net/DTD/sodipodi-0.dtd"
   xmlns="http://www.w3.org/2000/svg"
   xmlns:svg="http://www.w3.org/2000/svg"><sodipodi:namedview
     id="namedview7"
     pagecolor="#ffffff"
     bordercolor="#000000"
     borderopacity="0.25"
     inkscape:showpageshadow="2"
     inkscape:pageopacity="0.0"
     inkscape:pagecheckerboard="0"
     inkscape:deskcolor="#d1d1d1"
     inkscape:document-units="mm"
     showgrid="false"
     showguides="true"
     inkscape:zoom="0.50373354"
     inkscape:cx="916.15897"
     inkscape:cy="811.9372"
     inkscape:window-width="1920"
     inkscape:window-height="1001"
     inkscape:window-x="0"
     inkscape:window-y="0"
     inkscape:window-maximized="1"
     inkscape:current-layer="layer4"
     inkscape:lockguides="false"><sodipodi:guide
       position="18.124175,0.0359666"
       orientation="0,-1"
       id="guide17723"
       inkscape:locked="false" /><sodipodi:guide
       position="16.404325,16.091626"
       orientation="1,0"
       id="guide17783"
       inkscape:locked="false" /><sodipodi:guide
       position="16.898145,51.804484"
       orientation="0,-1"
       id="guide17790"
       inkscape:locked="false" /><sodipodi:guide
       position="32.891734,28.359605"
       orientation="1,0"
       id="guide17792"
       inkscape:locked="false" /></sodipodi:namedview><defs
     id="defs2" /><g
     inkscape:groupmode="layer"
     id="layer8"
     inkscape:label="Oficina"
     style="display:inline"
     transform="translate(-121.07845,-86.921864)"><g
       id="g17833"><path
         style="font-variation-settings:normal;display:inline;opacity:1;vector-effect:none;fill:#000000;fill-opacity:1;stroke:#000000;stroke-width:0.143788;stroke-linecap:butt;stroke-linejoin:miter;stroke-miterlimit:4;stroke-dasharray:none;stroke-dashoffset:0;stroke-opacity:1;-inkscape-stroke:none;stop-color:#000000;stop-opacity:1"
         d="m 129.44434,89.361449 c -2.40829,1.41411 -4.0522,2.81095 -5.14188,4.36909 l -0.68255,0.97599 -0.19301,0.71498 c -0.10615,0.39325 -0.40856,1.57516 -0.67201,2.62649 -0.26346,1.05133 -0.61488,2.381921 -0.78097,2.956851 l -0.30194,1.04537 0.0348,0.33157 0.0348,0.33157 0.26044,0.41508 c 0.33225,0.52951 0.78896,1.02651 1.45543,1.58383 l 0.52813,0.4416 0.10246,-0.0886 c 0.0564,-0.0487 0.15373,-0.24955 0.21546,-0.44686 0.0619,-0.19713 0.26531,-0.7418 0.45177,-1.21038 l 0.33902,-0.85198 0.27153,-0.35369 c 0.32731,-0.42621 0.31168,-0.45513 -0.26844,-0.49737 l -0.45491,-0.0332 -0.33461,-0.16941 c -0.18404,-0.0931 -0.38675,-0.23989 -0.45043,-0.32608 l -0.11586,-0.1567 0.40162,-0.32121 c 0.22085,-0.17671 0.6273,-0.55458 0.90316,-0.839721 l 0.50163,-0.51842 -10e-6,-0.35482 c 7e-5,-1.23342 0.91963,-3.35721 1.4539,-3.35726 0.18654,3e-5 0.16396,0.18093 -0.0721,0.57723 -0.39762,0.66759 -1.02208,2.4797 -0.89088,2.58516 0.0883,0.071 0.31509,-0.13001 0.64156,-0.56866 0.49784,-0.66875 0.75811,-0.59891 0.42617,0.11433 -0.16873,0.36262 -0.43859,0.66113 -1.34702,1.48996 -0.60932,0.555931 -1.02907,1.081171 -1.02903,1.287611 l 5e-4,0.12482 0.30244,0.0654 0.30243,0.0653 0.37082,-0.099 0.37084,-0.099 0.23711,0.0368 c 0.91635,0.14191 2.31757,0.84706 3.46994,1.74619 l 0.85466,0.66686 0.33446,0.43094 c 1.0582,1.3635 1.48644,1.83771 1.4864,1.64593 -3.8e-4,-0.0727 -0.5745,-1.08922 -0.85921,-1.52023 -0.49576,-0.7505 -0.43043,-0.9747 0.12071,-0.41435 0.62686,0.63744 1.50076,2.37877 1.70252,3.39271 0.049,0.24639 0.16887,0.77054 0.26632,1.16478 0.78359,3.16995 0.4242,4.83119 -1.11225,5.14128 -0.40911,0.0825 -0.15219,0.2133 0.31925,0.16249 l 0.30641,-0.0331 -3.3e-4,0.12006 -3.3e-4,0.12006 -0.22562,0.0752 -0.22559,0.0751 -0.41056,-0.034 c -0.69391,-0.0575 -1.46889,-0.40683 -2.44384,-1.1016 l -0.35573,-0.25341 -0.0611,-0.22441 c -0.12,-0.44018 -0.48751,-1.18895 -0.646,-1.31634 -0.24382,-0.19589 -0.27642,-0.37204 -0.27651,-1.49151 l -7.5e-4,-1.03045 -0.22294,-0.008 c -0.1226,-0.004 -0.62426,-0.0104 -1.11473,-0.0148 l -0.89179,-0.007 -0.43831,-0.16498 c -0.24106,-0.0907 -0.60065,-0.25868 -0.79907,-0.37327 -0.45904,-0.26499 -0.47169,-0.26356 -0.61408,0.0723 -0.0654,0.1544 -0.30291,0.54178 -0.52768,0.86095 l -0.40874,0.58027 -0.0429,0.25907 -0.0427,0.25911 0.21053,0.3126 c 0.29391,0.43628 1.05129,1.24637 1.65247,1.76751 0.73894,0.64048 1.49403,1.47534 1.98144,2.19061 0.63307,0.93469 1.16922,1.84928 1.7983,2.75098 0.26703,0.42525 0.35453,0.61204 0.38955,0.61203 0.099,-4.3e-4 0.12985,0.10797 -0.11439,-0.42749 -0.1253,-0.2748 -0.26493,-0.64247 -0.33984,-0.80676 -0.0382,-0.18001 -0.22394,-0.29999 -0.15603,-0.51607 l 0.0767,-2.3e-4 c 0.15209,-5.2e-4 0.67148,1.20815 1.72114,4.00347 l 0.72952,1.94279 0.23568,0.95424 c 0.51169,2.07183 1.5677,4.78322 2.48865,6.38979 0.75539,1.31774 1.60018,3.99664 2.23204,7.07823 0.10435,0.50922 0.25607,1.10405 0.33703,1.32185 l 0.14724,0.39602 0.20522,0.10885 c 0.25919,0.13846 0.67889,0.14181 0.93333,0.0101 l 0.19651,-0.10345 0.14977,-0.40288 c 0.082,-0.22163 0.23511,-0.81954 0.33941,-1.3288 0.63145,-3.08164 1.47585,-5.76066 2.23105,-7.07851 0.92155,-1.60742 1.9768,-4.31938 2.48795,-6.39167 0.42184,-1.71015 2.44137,-6.89938 2.68511,-6.8994 l 0.0768,-2.4e-4 c 0.007,0.17214 -0.0964,0.35395 -0.1928,0.51659 -0.42737,1.21053 -0.42485,1.20769 -0.38327,1.19869 0.0341,-0.007 0.0888,-0.15171 0.35555,-0.57698 0.77352,-1.10452 1.29421,-2.01092 1.79792,-2.75126 0.48721,-0.71538 1.24225,-1.55031 1.9811,-2.19089 0.60111,-0.52125 1.3581,-1.33168 1.65225,-1.76773 l 0.21055,-0.31256 -0.0429,-0.25907 -0.0429,-0.25908 -0.40879,-0.58023 c -0.22486,-0.31913 -0.46235,-0.70652 -0.52782,-0.86089 -0.14476,-0.34152 -0.12211,-0.34097 -0.72197,-0.018 -0.26842,0.14469 -0.68248,0.32232 -0.92018,0.39475 l -0.43214,0.13164 -0.72432,-0.0301 c -0.39834,-0.0164 -0.84982,-0.0169 -1.00323,-1.7e-4 l -0.27899,0.0301 -2.4e-4,1.02459 c 5.5e-4,1.11356 -0.0327,1.28986 -0.27632,1.48568 -0.15844,0.12742 -0.52577,0.87623 -0.64576,1.31645 l -0.0611,0.22444 -0.35562,0.25344 c -0.97486,0.69493 -1.7498,1.04436 -2.44374,1.10197 l -0.41057,0.034 -0.2256,-0.0751 -0.22563,-0.0752 3.3e-4,-0.12006 3.3e-4,-0.12006 0.30642,0.033 c 0.47142,0.0507 0.72837,-0.08 0.31925,-0.16255 -1.53651,-0.30985 -1.89616,-1.97108 -1.11304,-5.14112 0.0975,-0.39424 0.21718,-0.91841 0.26616,-1.16482 0.2016,-1.01395 1.0752,-2.75546 1.70203,-3.39294 0.55104,-0.56048 0.61641,-0.33626 0.12077,0.41432 -0.28463,0.43105 -0.85902,1.44764 -0.85906,1.52035 -9.2e-4,0.19176 0.42817,-0.28253 1.48619,-1.64616 l 0.33441,-0.43097 0.85461,-0.667 c 1.15221,-0.89929 2.55333,-1.60462 3.46969,-1.74669 l 0.23708,-0.0367 0.37084,0.0989 0.37085,0.099 0.30243,-0.0654 0.30244,-0.0654 5e-4,-0.12479 c -5.6e-4,-0.20643 -0.41988,-0.73159 -1.02924,-1.287451 -0.90853,-0.82869 -1.17839,-1.1272 -1.34722,-1.48979 -0.33203,-0.71321 -0.0719,-0.78309 0.42618,-0.11437 0.32857,0.44121 0.55339,0.63948 0.64317,0.5673 0.13257,-0.10664 -0.48435,-1.89919 -0.88465,-2.57046 -0.24346,-0.40827 -0.26823,-0.59049 -0.0805,-0.59051 0.53426,1.8e-4 1.45432,2.12364 1.4544,3.35705 l 2.1e-4,0.35483 0.50194,0.51811 c 0.27597,0.285061 0.68241,0.662931 0.90336,0.839511 l 0.40162,0.32121 -0.11581,0.15671 c -0.0637,0.0862 -0.26641,0.23293 -0.45042,0.32614 l -0.33458,0.16946 -0.45491,0.0333 c -0.5801,0.0423 -0.59573,0.0713 -0.26837,0.49742 l 0.27159,0.35363 0.33912,0.85192 c 0.18655,0.46855 0.38993,1.01321 0.45196,1.21031 0.0618,0.19711 0.15905,0.39819 0.21553,0.44682 l 0.1028,0.0885 0.52808,-0.44166 c 0.66644,-0.55739 1.12309,-1.05443 1.45522,-1.58404 l 0.26043,-0.41509 0.0348,-0.33157 0.0346,-0.33158 -0.30209,-1.04531 c -0.16616,-0.57583 -0.51782,-1.906371 -0.7814,-2.957671 -0.26362,-1.05128 -0.56621,-2.23315 -0.67241,-2.62638 l -0.19299,-0.71531 -0.68268,-0.97589 c -1.0899,-1.55797 -2.734,-2.95457 -5.14254,-4.36833 -1.55194,-0.91097 -5.12202,-1.88795 -8.06808,-1.97503 -2.94908,0.0112 -6.51594,1.06527 -8.06772,1.97646 z m 10.33419,-2.2154 c 2.19751,0.27469 4.90667,1.16785 6.37267,2.10096 0.41019,0.26666 0.72223,0.47786 1.29568,0.86253 2.24533,1.53493 2.81664,2.09175 3.88922,3.79052 l 0.51489,0.81551 0.29326,1.06772 c 0.16129,0.58722 0.36545,1.36336 0.45369,1.72475 0.0883,0.36138 0.41135,1.57094 0.71811,2.687911 l 0.55766,2.03084 -0.0475,0.26887 c -0.11792,0.66675 -0.97998,1.77478 -1.9751,2.53886 -0.29956,0.22999 -0.66646,0.51227 -0.81533,0.62725 -0.0727,0.56936 0.0182,1.09108 -0.33015,1.51388 0.0444,0.17799 -0.0685,0.30471 -0.014,0.39065 0.20406,0.31944 0.5956,0.88482 0.87498,1.26369 0.15839,0.21485 0.34217,0.51835 0.40837,0.67447 l 0.12029,0.28384 -0.0858,0.27433 c -0.16682,0.53261 -1.18182,1.67046 -2.60181,2.91661 -0.9153,0.80334 -0.87314,0.70922 -1.90302,4.24121 -0.28816,0.98827 -0.95213,2.26454 -1.67646,3.22257 l -0.13299,0.17606 c -0.59344,0.71931 -0.83105,1.28068 -1.41711,2.1868 -0.53018,0.81505 -0.73373,1.22906 -0.96634,1.96578 -0.45883,1.45326 -1.79503,4.32449 -2.23526,4.80317 -0.42741,0.9282 -0.6916,1.85185 -0.91503,2.58014 l -0.27957,0.98561 c -0.15375,0.5421 -0.39905,1.53668 -0.54507,2.21016 -0.34816,1.60614 -0.4703,2.10943 -0.61135,2.51944 l -0.1168,0.3391 -0.26238,0.21715 -0.26239,0.21715 -0.58807,-0.0162 -0.58805,-0.0162 -0.24298,-0.20144 -0.24294,-0.20097 -0.11678,-0.33911 c -0.14115,-0.40998 -0.26336,-0.91326 -0.61174,-2.51931 -0.14602,-0.67349 -0.39153,-1.66802 -0.54538,-2.2101 l -0.27977,-0.98531 c -0.23647,-0.92123 -0.481,-1.36494 -0.74295,-2.0535 -0.67462,-1.67129 -1.80815,-3.48986 -2.40841,-5.32935 -0.23262,-0.73665 -0.43621,-1.15063 -0.96654,-1.96558 -0.18171,-0.27915 -0.38982,-0.62338 -0.46243,-0.76487 -0.30235,-0.63271 -0.85514,-1.18365 -1.08803,-1.59768 -0.72447,-0.95791 -1.38861,-2.23409 -1.67691,-3.22231 -1.03041,-3.53182 -0.98818,-3.43775 -1.90366,-4.24093 -1.42015,-1.24594 -2.43535,-2.38362 -2.60224,-2.91623 l -0.086,-0.27434 0.11829,-0.27894 c 0.0651,-0.15342 0.31904,-0.55592 0.56535,-0.89391 0.2459,-0.3382 0.44715,-0.64059 0.44709,-0.67202 1.3e-4,-0.0314 0.0557,-0.0938 0.12327,-0.13905 0.52387,-0.54952 0.16647,-0.61966 -0.0439,-1.21702 l -0.15056,-0.92572 c -0.14888,-0.11499 -0.51586,-0.39715 -0.81542,-0.62714 -0.99523,-0.76393 -1.85741,-1.87181 -1.97547,-2.53855 l -0.0476,-0.26884 0.55737,-2.03095 c 0.30655,-1.117001 0.62952,-2.326611 0.71771,-2.688021 0.0882,-0.36138 0.29221,-1.13755 0.45341,-1.72482 l 0.29311,-1.06775 0.51474,-0.81562 c 1.07233,-1.6989 1.64354,-2.25582 3.88861,-3.79112 0.96128,-0.68644 0.95676,-0.64525 1.29556,-0.86271 1.46584,-0.93333 4.17482,-1.82689 6.37232,-2.1019 0.28611,-0.0359 0.60957,-0.14584 2.26848,-0.15231 1.65825,0.0127 1.97892,0.11669 2.26505,0.15248 z m -9.02088,34.294971 c -0.32756,-0.94831 -0.71826,-1.85516 -1.12295,-2.60635 -0.63354,-1.17597 -1.9896,-3.34543 -2.16656,-3.4661 l -0.17265,-0.11773 0.11711,0.11951 c 0.0644,0.0658 0.12028,0.17427 0.12422,0.24131 0.0107,0.17507 0.43932,1.62117 0.62168,2.09565 0.20952,0.54511 0.72968,1.50856 1.10859,2.05334 0.17139,0.24636 0.51331,0.74364 0.75987,1.10502 0.24652,0.3614 0.49375,0.71004 0.5493,0.77484 0.061,0.22285 0.32077,0.47329 0.37988,0.52389 0.0153,-0.0371 -0.0739,-0.36264 -0.19852,-0.72334 z m 13.59343,0.41618 c -2e-5,-0.0548 0.0455,-0.15254 0.10101,-0.21736 0.0556,-0.0647 0.30267,-0.41355 0.54921,-0.77492 0.2465,-0.36142 0.58836,-0.85874 0.75971,-1.10513 0.37888,-0.54481 0.89884,-1.50835 1.10827,-2.05352 0.1823,-0.47449 0.61109,-1.92068 0.6214,-2.09573 0.002,-0.067 0.06,-0.17562 0.12419,-0.2413 l 0.11693,-0.11973 -0.17268,0.11771 c -0.31512,0.215 -2.25262,3.50254 -2.74896,4.6646 -0.28712,0.67222 -0.75736,1.99095 -0.75404,2.11469 l 0.002,0.092 0.14585,-0.14127 c 0.0802,-0.0778 0.14613,-0.1858 0.1462,-0.24055 z M 126.3638,107.19802 c -0.0721,-0.20906 -0.1812,-0.45825 -0.24234,-0.55376 -0.18354,-0.28655 -0.40844,-0.93366 -0.5006,-1.4401 l -0.0867,-0.47638 0.0741,-0.21603 0.0741,-0.216 -0.11087,-0.0739 -0.11089,-0.0737 -0.12379,0.0621 c -0.0682,0.0342 -0.19751,0.24429 -0.28765,0.46693 l -0.16391,0.40483 0.0602,0.52342 0.0602,0.5234 0.22388,0.38008 c 0.54551,0.9262 1.39379,1.44174 1.13416,0.68927 z m 22.82049,0.0605 c 0.16622,-0.13861 0.42168,-0.4459 0.56772,-0.68281 l 0.26548,-0.43082 0.0616,-0.53588 0.0616,-0.53587 -0.16435,-0.40234 c -0.0902,-0.22126 -0.22002,-0.42983 -0.28812,-0.46345 l -0.1238,-0.0612 -0.11089,0.0738 -0.11085,0.074 0.0744,0.21598 0.0742,0.21599 -0.0867,0.47641 c -0.0921,0.50645 -0.31694,1.15358 -0.50037,1.44018 -0.53256,0.83194 -0.38021,1.16666 0.28029,0.61592 z m -11.82034,24.83498 -0.0946,-0.0915 0.0457,-0.88645 c 0.0738,-1.42714 0.0154,-18.86903 -0.10504,-19.90369 -0.004,-0.0201 0.1393,-0.0367 0.30279,-0.0367 0.16348,-1e-4 0.29975,0.0168 0.3028,0.0367 -0.10317,0.8405 -0.16395,18.48048 -0.0973,19.90789 l 0.0412,0.88226 -0.0943,0.0917 c -0.0522,0.0504 -0.11983,0.0915 -0.15066,0.0914 -0.0309,-1.1e-4 -0.0987,-0.0412 -0.15065,-0.0916 z m -3.75266,-7.53086 c -0.55922,-0.48488 -1.90075,-4.30902 -2.48812,-7.09231 -0.25055,-1.18726 -0.16155,-2.01713 0.10817,-1.00954 0.77977,2.91197 1.57343,5.33726 2.31195,7.06484 0.50535,1.1821 0.52161,1.43045 0.0678,1.03701 z m 7.47005,0.0312 c 4.7e-4,-0.0685 0.18156,-0.54936 0.40346,-1.06868 0.73827,-1.72765 1.53156,-4.15306 2.31092,-7.06517 0.26965,-1.00764 0.35878,-0.17776 0.10835,1.00953 -0.58695,2.78338 -1.92798,6.60769 -2.48708,7.09268 -0.2171,0.18832 -0.33574,0.19952 -0.33574,0.0317 z m -6.61513,-3.23502 c -0.48703,-0.26632 -0.68874,-0.74933 -1.27855,-3.06125 l -0.22861,-0.89598 -0.001,-0.74668 -10e-4,-0.74666 0.19091,-0.448 c 0.25507,-0.5986 0.66172,-1.32286 0.89737,-1.59808 0.10537,-0.1232 0.27428,-0.45232 0.37515,-0.73162 0.10094,-0.27926 0.20701,-0.55545 0.23567,-0.61383 0.11464,-0.17705 0.0731,-0.11031 0.26321,-0.41207 0.2415,-0.38288 0.52709,-0.45475 0.97071,-0.24413 l 0.21898,0.10386 0.10709,0.29922 c 0.44613,1.24635 0.2993,3.62814 -0.34806,5.64543 l -0.22045,0.68692 0.003,0.77655 c 0.002,0.4271 0.0248,0.9272 0.0506,1.11133 l 0.0471,0.33483 -0.0915,0.14301 c -0.0504,0.0786 -0.19446,0.23045 -0.3202,0.33723 l -0.22857,0.19415 -0.19736,-1.1e-4 c -0.10862,8e-5 -0.30795,-0.0605 -0.44309,-0.1343 z m 5.22636,-0.0601 c -0.12578,-0.10671 -0.26984,-0.25852 -0.32034,-0.33711 l -0.0916,-0.14307 0.047,-0.33482 c 0.0256,-0.18415 0.0485,-0.68427 0.0504,-1.11134 l 0.003,-0.77653 -0.22055,-0.68693 c -0.64759,-2.01715 -0.79479,-4.39894 -0.3488,-5.64535 l 0.10705,-0.29924 0.2189,-0.10393 c 0.44359,-0.21065 0.72924,-0.13885 0.97078,0.24398 0.0928,0.15199 0.16756,0.27039 0.26326,0.41205 0.0286,0.0583 0.13476,0.33453 0.23576,0.61376 0.10104,0.27927 0.26987,0.60847 0.37529,0.73158 0.2357,0.27517 0.64247,0.99937 0.8976,1.59795 l 0.19094,0.44799 3.8e-4,0.74667 3.8e-4,0.74667 -0.22846,0.89602 c -0.35979,1.41104 -0.74832,2.61483 -0.89652,2.77767 -0.19605,0.21545 -0.5959,0.41818 -0.82466,0.4182 l -0.19744,-1.2e-4 -0.22859,-0.19414 z m -11.49553,-6.74907 c -0.23884,-0.25317 -0.72943,-0.92753 -1.27097,-1.74711 -0.62346,-0.94354 -1.1482,-1.65058 -1.70573,-2.29833 l -0.48733,-0.56621 0.10399,-0.0836 0.10406,-0.0835 0.22281,0.12752 c 0.76645,0.43864 1.96706,2.01328 3.06796,4.02367 0.40057,0.73153 0.38185,1.06931 -0.0348,0.62773 z m 18.30861,0.0511 c -4.1e-4,-0.72082 2.48709,-4.20656 3.3567,-4.70433 l 0.22277,-0.12756 0.104,0.0837 0.10401,0.0836 -0.48728,0.56622 c -0.57363,0.66657 -1.05549,1.32072 -1.84745,2.50768 -0.63178,0.94689 -1.2144,1.68348 -1.35998,1.71941 l -0.0929,0.0229 z m -10.03293,-3.64243 c -2e-4,-0.0777 0.0958,-0.31278 0.21286,-0.52269 0.11722,-0.20983 0.27241,-0.52944 0.3451,-0.71015 0.0727,-0.18072 0.17746,-0.35007 0.23292,-0.37632 0.0556,-0.0262 0.10069,-0.0868 0.10091,-0.13436 -1.3e-4,-0.38748 0.43639,0.0208 0.70186,0.6556 0.106,0.25381 0.25902,0.56587 0.34002,0.69347 0.081,0.12768 0.14721,0.30028 0.14724,0.38372 l 5.3e-4,0.15174 -0.0999,4e-4 c -0.13958,-3e-5 -0.29622,-0.15647 -0.52762,-0.52702 -0.16702,-0.27538 -0.16114,-0.41441 -0.38687,-0.52755 -0.1894,0.0976 -0.25416,0.23069 -0.43931,0.52757 -0.32057,0.51416 -0.6273,0.703 -0.62732,0.38618 z m -1.01517,-2.51697 c -0.12913,-0.26279 -0.34012,-0.74665 -0.46894,-1.07518 -1.60635,-4.09647 -2.22375,-5.1126 -4.11091,-6.76565 -0.21492,-0.18826 -0.48815,-0.44523 -0.60721,-0.57102 l -0.21628,-0.228921 0.10189,-0.0506 0.10189,-0.0506 0.19883,0.0826 c 1.26359,1.106531 2.45064,2.147921 3.29399,3.509041 0.78439,1.28854 2.04419,4.78307 1.96345,5.44634 l -0.0222,0.18172 z m 3.84511,0.283 c -0.0246,-0.7879 1.20231,-4.16964 1.97161,-5.43379 1.09106,-1.23862 1.8806,-2.6555 3.29349,-3.509511 l 0.19877,-0.0828 0.10192,0.0505 0.10188,0.0506 -0.21639,0.228791 c -0.11893,0.12591 -0.39205,0.38304 -0.60712,0.57117 -1.57697,1.38174 -2.4776,2.69516 -3.36996,4.91446 -0.29064,0.72282 -0.66353,1.65019 -0.82861,2.06086 -0.16512,0.41069 -0.37662,0.88111 -0.46999,1.04539 l -0.16976,0.29869 -0.006,-0.19457 z m -3.97873,-3.35382 c -0.0615,-0.0957 -0.34763,-0.63612 -0.6359,-1.2013 -0.4888,-0.95837 -0.664,-1.25128 -1.24628,-2.08386 -0.3613,-0.51663 -0.15165,-0.66783 0.31819,-0.22954 0.76899,0.71729 1.62536,2.32295 1.7844,3.34554 l 0.0533,0.34285 -0.081,8e-5 c -0.0447,3.9e-4 -0.13121,-0.0782 -0.19278,-0.17368 z m 4.15718,-0.16943 c 0.15888,-1.02262 1.01505,-2.62839 1.78392,-3.34581 0.46981,-0.43836 0.67946,-0.28719 0.31821,0.22951 -0.58213,0.83267 -0.7573,1.12558 -1.24596,2.08406 -0.6078,1.19206 -0.7181,1.37514 -0.82848,1.37515 l -0.081,8e-5 z m 2.19281,-7.049331 c 7e-5,-0.0575 0.24868,-0.41367 0.55268,-0.79149 1.50076,-1.86545 2.293,-2.97756 2.60649,-3.65888 0.0719,-0.15604 0.17614,-0.28377 0.232,-0.28371 l 0.10147,-4e-5 -6.3e-4,0.18395 c -8e-5,0.4736 -0.67997,1.52382 -2.10484,3.25088 -1.05672,1.28083 -1.38766,1.59071 -1.38765,1.29931 z"
         id="path7068-53-2-1-5-6-9-1-6-4-3-4"
         sodipodi:nodetypes="ssccsscccssccsscssccscsscsssssssscccccsscsssssssscccccsscssscccccssscccssccssccsscsssscsccsssssccsccsscccsssscsscssscsscccccscsssssscsscccccsssssssscsscsscsscssccsscccssscsscssccscssscsscccsscssssccsccssscccccccssscccsccssscssscccsscssscsccsccscccscsssccsscccsscccssccccccccccccccscccsccccccccccccccssccccssscscsscccscsccscscssscssccscsccccssccscsscsccsscsccssccccssscccsssccsscscccsssscscccsssccsccssssscscccsscccscccccsccccscccccsssccccsssccsccssssccsssscsssssss" /><path
         style="font-variation-settings:normal;display:inline;vector-effect:none;fill:#000000;fill-opacity:1;stroke:#000000;stroke-width:0.143788;stroke-linecap:butt;stroke-linejoin:miter;stroke-miterlimit:4;stroke-dasharray:none;stroke-dashoffset:0;stroke-opacity:1;-inkscape-stroke:none;stop-color:#000000"
         d="m 162.34812,136.29667 c -2.40829,-1.41411 -4.0522,-2.81095 -5.14188,-4.36909 l -0.68255,-0.97599 -0.19301,-0.71498 c -0.10615,-0.39325 -0.40856,-1.57516 -0.67201,-2.62649 -0.26346,-1.05133 -0.61488,-2.38192 -0.78097,-2.95685 l -0.30194,-1.04537 0.0348,-0.33157 0.0348,-0.33157 0.26044,-0.41508 c 0.33225,-0.52951 0.78896,-1.02651 1.45543,-1.58383 l 0.52813,-0.4416 0.10246,0.0886 c 0.0564,0.0487 0.15373,0.24955 0.21546,0.44686 0.0619,0.19713 0.26531,0.7418 0.45177,1.21038 l 0.33902,0.85198 0.27153,0.35369 c 0.32731,0.42621 0.31168,0.45513 -0.26844,0.49737 l -0.45491,0.0332 -0.33461,0.16941 c -0.18404,0.0931 -0.38675,0.23989 -0.45043,0.32608 l -0.11586,0.1567 0.40162,0.32121 c 0.22085,0.17671 0.6273,0.55458 0.90316,0.83972 l 0.50163,0.51842 -1e-5,0.35482 c 7e-5,1.23342 0.91963,3.35721 1.4539,3.35726 0.18654,-3e-5 0.16396,-0.18093 -0.0721,-0.57723 -0.39762,-0.66759 -1.02208,-2.4797 -0.89088,-2.58516 0.0883,-0.071 0.31509,0.13001 0.64156,0.56866 0.49784,0.66875 0.75811,0.59891 0.42617,-0.11433 -0.16873,-0.36262 -0.43859,-0.66113 -1.34702,-1.48996 -0.60932,-0.55593 -1.02907,-1.08117 -1.02903,-1.28761 l 5e-4,-0.12482 0.30244,-0.0654 0.30243,-0.0653 0.37082,0.099 0.37084,0.099 0.23711,-0.0368 c 0.91635,-0.14191 2.31757,-0.84706 3.46994,-1.74619 l 0.85466,-0.66686 0.33446,-0.43094 c 1.0582,-1.3635 1.48644,-1.83771 1.4864,-1.64593 -3.8e-4,0.0727 -0.5745,1.08922 -0.85921,1.52023 -0.49576,0.7505 -0.43043,0.9747 0.12071,0.41435 0.62686,-0.63744 1.50076,-2.37877 1.70252,-3.39271 0.049,-0.24639 0.16887,-0.77054 0.26632,-1.16478 0.78359,-3.16995 0.4242,-4.83119 -1.11225,-5.14128 -0.40911,-0.0825 -0.15219,-0.2133 0.31925,-0.16249 l 0.30641,0.0331 -3.3e-4,-0.12006 -3.3e-4,-0.12006 -0.22562,-0.0752 -0.22559,-0.0751 -0.41056,0.034 c -0.69391,0.0575 -1.46889,0.40683 -2.44384,1.1016 l -0.35573,0.25341 -0.0611,0.22441 c -0.12,0.44018 -0.48751,1.18895 -0.646,1.31634 -0.24382,0.19589 -0.27642,0.37204 -0.27651,1.49151 l -7.5e-4,1.03045 -0.22294,0.008 c -0.1226,0.004 -0.62426,0.0104 -1.11473,0.0148 l -0.89179,0.007 -0.43831,0.16498 c -0.24106,0.0907 -0.60065,0.25868 -0.79907,0.37327 -0.45904,0.26499 -0.47169,0.26356 -0.61408,-0.0723 -0.0654,-0.1544 -0.30291,-0.54178 -0.52768,-0.86095 l -0.40874,-0.58027 -0.0429,-0.25907 -0.0427,-0.25911 0.21053,-0.3126 c 0.29391,-0.43628 1.05129,-1.24637 1.65247,-1.76751 0.73894,-0.64048 1.49403,-1.47534 1.98144,-2.19061 0.63307,-0.93469 1.16922,-1.84928 1.7983,-2.75098 0.26703,-0.42525 0.35453,-0.61204 0.38955,-0.61203 0.099,4.3e-4 0.12985,-0.10797 -0.11439,0.42749 -0.1253,0.2748 -0.26493,0.64247 -0.33984,0.80676 -0.0382,0.18001 -0.22394,0.29999 -0.15603,0.51607 l 0.0767,2.3e-4 c 0.15209,5.2e-4 0.67148,-1.20815 1.72114,-4.00346 l 0.72952,-1.94279 0.23568,-0.95424 c 0.51169,-2.07183 1.5677,-4.783224 2.48865,-6.389794 0.75539,-1.31774 1.60018,-3.99664 2.23204,-7.07823 0.10435,-0.50922 0.25607,-1.10405 0.33703,-1.32185 l 0.14724,-0.39602 0.20522,-0.10885 c 0.25919,-0.13846 0.67889,-0.14181 0.93333,-0.0101 l 0.19651,0.10345 0.14977,0.40288 c 0.082,0.22163 0.23511,0.81954 0.33941,1.3288 0.63145,3.08164 1.47585,5.76066 2.23105,7.07851 0.92155,1.60742 1.9768,4.319384 2.48795,6.391674 0.42184,1.71015 2.44137,6.89937 2.68511,6.89939 l 0.0768,2.4e-4 c 0.007,-0.17214 -0.0964,-0.35395 -0.1928,-0.51659 -0.42737,-1.21053 -0.42485,-1.20769 -0.38327,-1.19869 0.0341,0.007 0.0888,0.15171 0.35555,0.57698 0.77352,1.10452 1.29421,2.01092 1.79792,2.75126 0.48721,0.71538 1.24225,1.55031 1.9811,2.19089 0.60111,0.52125 1.3581,1.33168 1.65225,1.76773 l 0.21055,0.31256 -0.0429,0.25907 -0.0429,0.25908 -0.40879,0.58023 c -0.22486,0.31913 -0.46235,0.70652 -0.52782,0.86089 -0.14476,0.34152 -0.12211,0.34097 -0.72197,0.018 -0.26842,-0.14469 -0.68248,-0.32232 -0.92018,-0.39475 l -0.43214,-0.13164 -0.72432,0.0301 c -0.39834,0.0164 -0.84982,0.0169 -1.00323,1.7e-4 l -0.27899,-0.0301 -2.4e-4,-1.02459 c 5.5e-4,-1.11356 -0.0327,-1.28986 -0.27632,-1.48568 -0.15844,-0.12742 -0.52577,-0.87623 -0.64576,-1.31645 l -0.0611,-0.22444 -0.35562,-0.25344 c -0.97486,-0.69493 -1.7498,-1.04436 -2.44374,-1.10197 l -0.41057,-0.034 -0.2256,0.0751 -0.22563,0.0752 3.3e-4,0.12006 3.3e-4,0.12006 0.30642,-0.033 c 0.47142,-0.0507 0.72837,0.08 0.31925,0.16255 -1.53651,0.30985 -1.89616,1.97108 -1.11304,5.14112 0.0975,0.39424 0.21718,0.91841 0.26616,1.16482 0.2016,1.01395 1.0752,2.75546 1.70203,3.39294 0.55104,0.56048 0.61641,0.33626 0.12077,-0.41432 -0.28463,-0.43105 -0.85902,-1.44764 -0.85906,-1.52035 -9.2e-4,-0.19176 0.42817,0.28253 1.48619,1.64616 l 0.33441,0.43097 0.85461,0.667 c 1.15221,0.89929 2.55333,1.60462 3.46969,1.74669 l 0.23708,0.0367 0.37084,-0.0989 0.37085,-0.099 0.30243,0.0654 0.30244,0.0654 5e-4,0.12479 c -5.6e-4,0.20643 -0.41988,0.73159 -1.02924,1.28745 -0.90853,0.82869 -1.17839,1.1272 -1.34722,1.48979 -0.33203,0.71321 -0.0719,0.78309 0.42618,0.11437 0.32857,-0.44121 0.55339,-0.63948 0.64317,-0.5673 0.13257,0.10664 -0.48435,1.89919 -0.88465,2.57046 -0.24346,0.40827 -0.26823,0.59049 -0.0805,0.59051 0.53426,-1.8e-4 1.45432,-2.12364 1.4544,-3.35705 l 2.1e-4,-0.35483 0.50194,-0.51811 c 0.27597,-0.28506 0.68241,-0.66293 0.90336,-0.83951 l 0.40162,-0.32121 -0.11581,-0.15671 c -0.0637,-0.0862 -0.26641,-0.23293 -0.45042,-0.32614 l -0.33458,-0.16946 -0.45491,-0.0333 c -0.5801,-0.0423 -0.59573,-0.0713 -0.26837,-0.49742 l 0.27159,-0.35363 0.33912,-0.85192 c 0.18655,-0.46855 0.38993,-1.01321 0.45196,-1.21031 0.0618,-0.19711 0.15905,-0.39819 0.21553,-0.44682 l 0.1028,-0.0885 0.52808,0.44166 c 0.66644,0.55739 1.12309,1.05443 1.45522,1.58404 l 0.26043,0.41509 0.0348,0.33157 0.0346,0.33158 -0.30209,1.04531 c -0.16616,0.57583 -0.51782,1.90637 -0.7814,2.95767 -0.26362,1.05128 -0.56621,2.23315 -0.67241,2.62638 l -0.19299,0.71531 -0.68268,0.97589 c -1.0899,1.55797 -2.734,2.95457 -5.14254,4.36833 -1.55194,0.91097 -5.12202,1.88795 -8.06808,1.97503 -2.94908,-0.0112 -6.51594,-1.06527 -8.06772,-1.97646 z m 10.33419,2.2154 c 2.19751,-0.27469 4.90667,-1.16785 6.37267,-2.10096 0.41019,-0.26666 0.72223,-0.47786 1.29568,-0.86253 2.24533,-1.53493 2.81664,-2.09175 3.88922,-3.79052 l 0.51489,-0.81551 0.29326,-1.06772 c 0.16129,-0.58722 0.36545,-1.36336 0.45369,-1.72475 0.0883,-0.36138 0.41135,-1.57094 0.71811,-2.68791 l 0.55766,-2.03084 -0.0475,-0.26887 c -0.11792,-0.66675 -0.97998,-1.77478 -1.9751,-2.53886 -0.29956,-0.22999 -0.66646,-0.51227 -0.81533,-0.62725 -0.0727,-0.56936 0.0182,-1.09108 -0.33015,-1.51388 0.0444,-0.17799 -0.0685,-0.30471 -0.014,-0.39065 0.20406,-0.31944 0.5956,-0.88482 0.87498,-1.26369 0.15839,-0.21485 0.34217,-0.51835 0.40837,-0.67447 l 0.12029,-0.28384 -0.0858,-0.27433 c -0.16682,-0.53261 -1.18182,-1.67046 -2.60181,-2.91661 -0.9153,-0.80334 -0.87314,-0.70922 -1.90302,-4.24121 -0.28816,-0.98827 -0.95213,-2.26453 -1.67646,-3.22256 l -0.13299,-0.17606 c -0.59344,-0.71931 -0.83105,-1.28068 -1.41711,-2.1868 -0.53018,-0.81505 -0.73373,-1.22906 -0.96634,-1.96578 -0.45883,-1.453264 -1.79503,-4.324494 -2.23526,-4.803174 -0.42741,-0.9282 -0.6916,-1.85185 -0.91503,-2.58014 l -0.27957,-0.98561 c -0.15375,-0.5421 -0.39905,-1.53668 -0.54507,-2.21016 -0.34816,-1.60614 -0.4703,-2.10943 -0.61135,-2.51944 l -0.1168,-0.3391 -0.26238,-0.21715 -0.26239,-0.21715 -0.58807,0.0162 -0.58805,0.0162 -0.24298,0.20144 -0.24294,0.20097 -0.11678,0.33911 c -0.14115,0.40998 -0.26336,0.91326 -0.61174,2.51931 -0.14602,0.67349 -0.39153,1.66802 -0.54538,2.2101 l -0.27977,0.98531 c -0.23647,0.92123 -0.481,1.36494 -0.74295,2.0535 -0.67462,1.67129 -1.80815,3.48986 -2.40841,5.329354 -0.23262,0.73665 -0.43621,1.15063 -0.96654,1.96558 -0.18171,0.27915 -0.38982,0.62338 -0.46243,0.76487 -0.30235,0.63271 -0.85514,1.18365 -1.08803,1.59768 -0.72447,0.95791 -1.38861,2.23408 -1.67691,3.2223 -1.03041,3.53182 -0.98818,3.43775 -1.90366,4.24093 -1.42015,1.24594 -2.43535,2.38362 -2.60224,2.91623 l -0.086,0.27434 0.11829,0.27894 c 0.0651,0.15342 0.31904,0.55592 0.56535,0.89391 0.2459,0.3382 0.44715,0.64059 0.44709,0.67202 1.3e-4,0.0314 0.0557,0.0938 0.12327,0.13905 0.52387,0.54952 0.16647,0.61966 -0.0439,1.21702 l -0.15056,0.92572 c -0.14888,0.11499 -0.51586,0.39715 -0.81542,0.62714 -0.99523,0.76393 -1.85741,1.87181 -1.97547,2.53855 l -0.0476,0.26884 0.55737,2.03095 c 0.30655,1.117 0.62952,2.32661 0.71771,2.68802 0.0882,0.36138 0.29221,1.13755 0.45341,1.72482 l 0.29311,1.06775 0.51474,0.81562 c 1.07233,1.6989 1.64354,2.25582 3.88861,3.79112 0.96128,0.68644 0.95676,0.64525 1.29556,0.86271 1.46584,0.93333 4.17482,1.82689 6.37232,2.1019 0.28611,0.0359 0.60957,0.14584 2.26848,0.15231 1.65825,-0.0127 1.97892,-0.11669 2.26505,-0.15248 z m -9.02088,-34.29496 c -0.32756,0.94831 -0.71826,1.85516 -1.12295,2.60634 -0.63354,1.17597 -1.9896,3.34543 -2.16656,3.4661 l -0.17265,0.11773 0.11711,-0.11951 c 0.0644,-0.0658 0.12028,-0.17427 0.12422,-0.24131 0.0107,-0.17507 0.43932,-1.62117 0.62168,-2.09565 0.20952,-0.54511 0.72968,-1.50855 1.10859,-2.05333 0.17139,-0.24636 0.51331,-0.74364 0.75987,-1.10502 0.24652,-0.3614 0.49375,-0.71004 0.5493,-0.77484 0.061,-0.22285 0.32077,-0.47329 0.37988,-0.52389 0.0153,0.0371 -0.0739,0.36264 -0.19852,0.72334 z m 13.59343,-0.41618 c -2e-5,0.0548 0.0455,0.15254 0.10101,0.21736 0.0556,0.0647 0.30267,0.41355 0.54921,0.77492 0.2465,0.36142 0.58836,0.85874 0.75971,1.10513 0.37888,0.54481 0.89884,1.50834 1.10827,2.05351 0.1823,0.47449 0.61109,1.92068 0.6214,2.09573 0.002,0.067 0.06,0.17562 0.12419,0.2413 l 0.11693,0.11973 -0.17268,-0.11771 c -0.31512,-0.215 -2.25262,-3.50253 -2.74896,-4.66459 -0.28712,-0.67222 -0.75736,-1.99095 -0.75404,-2.11469 l 0.002,-0.092 0.14585,0.14127 c 0.0802,0.0778 0.14613,0.1858 0.1462,0.24055 z m -17.98728,14.65917 c -0.0721,0.20906 -0.1812,0.45825 -0.24234,0.55376 -0.18354,0.28655 -0.40844,0.93366 -0.5006,1.4401 l -0.0867,0.47638 0.0741,0.21603 0.0741,0.216 -0.11087,0.0739 -0.11089,0.0737 -0.12379,-0.0621 c -0.0682,-0.0342 -0.19751,-0.24429 -0.28765,-0.46693 l -0.16391,-0.40483 0.0602,-0.52342 0.0602,-0.5234 0.22388,-0.38008 c 0.54551,-0.9262 1.39379,-1.44174 1.13416,-0.68927 z m 22.82049,-0.0605 c 0.16622,0.13861 0.42168,0.4459 0.56772,0.68281 l 0.26548,0.43082 0.0616,0.53588 0.0616,0.53587 -0.16435,0.40234 c -0.0902,0.22126 -0.22002,0.42983 -0.28812,0.46345 l -0.1238,0.0612 -0.11089,-0.0738 -0.11085,-0.074 0.0744,-0.21598 0.0742,-0.21599 -0.0867,-0.47641 c -0.0921,-0.50645 -0.31694,-1.15358 -0.50037,-1.44018 -0.53256,-0.83194 -0.38021,-1.16666 0.28029,-0.61592 z m -11.82034,-24.834974 -0.0946,0.0915 0.0457,0.88645 c 0.0738,1.42714 0.0154,18.869024 -0.10504,19.903684 -0.004,0.0201 0.1393,0.0367 0.30279,0.0367 0.16348,10e-5 0.29975,-0.0168 0.3028,-0.0367 -0.10317,-0.8405 -0.16395,-18.480474 -0.0973,-19.907884 l 0.0412,-0.88226 -0.0943,-0.0917 c -0.0522,-0.0504 -0.11983,-0.0915 -0.15066,-0.0914 -0.0309,1.1e-4 -0.0987,0.0412 -0.15065,0.0916 z m -3.75266,7.530864 c -0.55922,0.48488 -1.90075,4.30902 -2.48812,7.0923 -0.25055,1.18726 -0.16155,2.01713 0.10817,1.00954 0.77977,-2.91196 1.57343,-5.33725 2.31195,-7.06483 0.50535,-1.1821 0.52161,-1.43045 0.0678,-1.03701 z m 7.47005,-0.0312 c 4.7e-4,0.0685 0.18156,0.54936 0.40346,1.06868 0.73827,1.72765 1.53156,4.15306 2.31092,7.06516 0.26965,1.00764 0.35878,0.17776 0.10835,-1.00953 -0.58695,-2.78337 -1.92798,-6.60768 -2.48708,-7.09267 -0.2171,-0.18832 -0.33574,-0.19952 -0.33574,-0.0317 z m -6.61513,3.23502 c -0.48703,0.26632 -0.68874,0.74933 -1.27855,3.06124 l -0.22861,0.89598 -0.001,0.74668 -0.001,0.74666 0.19091,0.448 c 0.25507,0.5986 0.66172,1.32286 0.89737,1.59808 0.10537,0.1232 0.27428,0.45232 0.37515,0.73162 0.10094,0.27926 0.20701,0.55545 0.23567,0.61383 0.11464,0.17705 0.0731,0.11031 0.26321,0.41207 0.2415,0.38288 0.52709,0.45475 0.97071,0.24413 l 0.21898,-0.10386 0.10709,-0.29922 c 0.44613,-1.24635 0.2993,-3.62814 -0.34806,-5.64543 l -0.22045,-0.68692 0.003,-0.77654 c 0.002,-0.4271 0.0248,-0.9272 0.0506,-1.11133 l 0.0471,-0.33483 -0.0915,-0.14301 c -0.0504,-0.0786 -0.19446,-0.23045 -0.3202,-0.33723 l -0.22857,-0.19415 -0.19736,1.1e-4 c -0.10862,-8e-5 -0.30795,0.0605 -0.44309,0.1343 z m 5.22636,0.0601 c -0.12578,0.10671 -0.26984,0.25852 -0.32034,0.33711 l -0.0916,0.14307 0.047,0.33482 c 0.0256,0.18415 0.0485,0.68427 0.0504,1.11134 l 0.003,0.77652 -0.22055,0.68693 c -0.64759,2.01715 -0.79479,4.39894 -0.3488,5.64535 l 0.10705,0.29924 0.2189,0.10393 c 0.44359,0.21065 0.72924,0.13885 0.97078,-0.24398 0.0928,-0.15199 0.16756,-0.27039 0.26326,-0.41205 0.0286,-0.0583 0.13476,-0.33453 0.23576,-0.61376 0.10104,-0.27927 0.26987,-0.60847 0.37529,-0.73158 0.2357,-0.27517 0.64247,-0.99937 0.8976,-1.59795 l 0.19094,-0.44799 3.8e-4,-0.74667 3.8e-4,-0.74667 -0.22846,-0.89602 c -0.35979,-1.41103 -0.74832,-2.61482 -0.89652,-2.77766 -0.19605,-0.21545 -0.5959,-0.41818 -0.82466,-0.4182 l -0.19744,1.2e-4 -0.22859,0.19414 z m -11.49553,6.74906 c -0.23884,0.25317 -0.72943,0.92753 -1.27097,1.74711 -0.62346,0.94354 -1.1482,1.65058 -1.70573,2.29833 l -0.48733,0.56621 0.10399,0.0836 0.10406,0.0835 0.22281,-0.12752 c 0.76645,-0.43864 1.96706,-2.01328 3.06796,-4.02367 0.40057,-0.73153 0.38185,-1.06931 -0.0348,-0.62773 z m 18.30861,-0.0511 c -4.1e-4,0.72082 2.48709,4.20656 3.3567,4.70433 l 0.22277,0.12756 0.104,-0.0837 0.10401,-0.0836 -0.48728,-0.56622 c -0.57363,-0.66657 -1.05549,-1.32072 -1.84745,-2.50768 -0.63178,-0.94689 -1.2144,-1.68348 -1.35998,-1.71941 l -0.0929,-0.0229 z m -10.03293,3.64243 c -2e-4,0.0777 0.0958,0.31278 0.21286,0.52269 0.11722,0.20983 0.27241,0.52944 0.3451,0.71015 0.0727,0.18072 0.17746,0.35007 0.23292,0.37632 0.0556,0.0262 0.10069,0.0868 0.10091,0.13436 -1.3e-4,0.38748 0.43639,-0.0208 0.70186,-0.6556 0.106,-0.25381 0.25902,-0.56587 0.34002,-0.69347 0.081,-0.12768 0.14721,-0.30028 0.14724,-0.38372 l 5.3e-4,-0.15174 -0.0999,-4e-4 c -0.13958,3e-5 -0.29622,0.15647 -0.52762,0.52702 -0.16702,0.27538 -0.16114,0.41441 -0.38687,0.52755 -0.1894,-0.0976 -0.25416,-0.23069 -0.43931,-0.52757 -0.32057,-0.51416 -0.6273,-0.703 -0.62732,-0.38618 z m -1.01517,2.51697 c -0.12913,0.26279 -0.34012,0.74665 -0.46894,1.07518 -1.60635,4.09647 -2.22375,5.1126 -4.11091,6.76565 -0.21492,0.18826 -0.48815,0.44523 -0.60721,0.57102 l -0.21628,0.22892 0.10189,0.0506 0.10189,0.0506 0.19883,-0.0826 c 1.26359,-1.10653 2.45064,-2.14792 3.29399,-3.50904 0.78439,-1.28854 2.04419,-4.78307 1.96345,-5.44634 l -0.0222,-0.18172 z m 3.84511,-0.283 c -0.0246,0.7879 1.20231,4.16964 1.97161,5.43379 1.09106,1.23862 1.8806,2.6555 3.29349,3.50951 l 0.19877,0.0828 0.10192,-0.0505 0.10188,-0.0506 -0.21639,-0.22879 c -0.11893,-0.12591 -0.39205,-0.38304 -0.60712,-0.57117 -1.57697,-1.38174 -2.4776,-2.69516 -3.36996,-4.91446 -0.29064,-0.72282 -0.66353,-1.65019 -0.82861,-2.06086 -0.16512,-0.41069 -0.37662,-0.88111 -0.46999,-1.04539 l -0.16976,-0.29869 -0.006,0.19457 z m -3.97873,3.35382 c -0.0615,0.0957 -0.34763,0.63612 -0.6359,1.2013 -0.4888,0.95837 -0.664,1.25128 -1.24628,2.08386 -0.3613,0.51663 -0.15165,0.66783 0.31819,0.22954 0.76899,-0.71729 1.62536,-2.32295 1.7844,-3.34554 l 0.0533,-0.34285 -0.081,-8e-5 c -0.0447,-3.9e-4 -0.13121,0.0782 -0.19278,0.17368 z m 4.15718,0.16943 c 0.15888,1.02262 1.01505,2.62839 1.78392,3.34581 0.46981,0.43836 0.67946,0.28719 0.31821,-0.22951 -0.58213,-0.83267 -0.7573,-1.12558 -1.24596,-2.08406 -0.6078,-1.19206 -0.7181,-1.37514 -0.82848,-1.37515 l -0.081,-8e-5 z m 2.19281,7.04933 c 7e-5,0.0575 0.24868,0.41367 0.55268,0.79149 1.50076,1.86545 2.293,2.97756 2.60649,3.65888 0.0719,0.15604 0.17614,0.28377 0.232,0.28371 l 0.10147,4e-5 -6.3e-4,-0.18395 c -8e-5,-0.4736 -0.67997,-1.52382 -2.10484,-3.25088 -1.05672,-1.28083 -1.38766,-1.59071 -1.38765,-1.29931 z"
         id="path7068-53-2-1-5-6-9-1-6-4-3-4-8"
         sodipodi:nodetypes="ssccsscccssccsscssccscsscsssssssscccccsscsssssssscccccsscssscccccssscccssccssccsscsssscsccsssssccsccsscccsssscsscssscsscccccscsssssscsscccccsssssssscsscsscsscssccsscccssscsscssccscssscsscccsscssssccsccssscccccccssscccsccssscssscccsscssscsccsccscccscsssccsscccsscccssccccccccccccccscccsccccccccccccccssccccssscscsscccscsccscscssscssccscsccccssccscsscsccsscsccssccccssscccsssccsscscccsssscscccsssccsccssssscscccsscccscccccsccccscccccsssccccsssccsccssssccsssscsssssss" /></g></g></svg>
